<?xml version="1.0" standalone="no"?>
<!DOCTYPE svg PUBLIC "-//W3C//DTD SVG 20010904//EN"
 "http://www.w3.org/TR/2001/REC-SVG-20010904/DTD/svg10.dtd">
<svg version="1.0" xmlns="http://www.w3.org/2000/svg"
 width="318.000000pt" height="318.000000pt" viewBox="0 0 318.000000 318.000000"
 preserveAspectRatio="xMidYMid meet">
<metadata>
Created by potrace 1.14, written by Peter Selinger 2001-2017
</metadata>
<g transform="translate(0.000000,318.000000) scale(0.100000,-0.100000)"
fill="#000000" stroke="none">
<path d="M2113 2229 c-75 -10 -135 -43 -177 -96 -20 -26 -49 -55 -64 -65 -29
-19 -72 -24 -72 -9 0 21 -76 111 -104 122 -22 10 -35 10 -60 0 -59 -25 -81
-24 -121 3 -48 33 -75 40 -127 33 -50 -7 -90 -43 -125 -114 -23 -48 -30 -55
-68 -64 -24 -6 -54 -22 -67 -36 -20 -21 -23 -35 -23 -104 0 -93 0 -93 -115
-54 -86 29 -135 31 -211 9 -124 -37 -219 -106 -219 -158 0 -33 33 -70 83 -94
40 -19 43 -22 39 -55 -4 -32 -7 -35 -43 -41 -67 -11 -73 -31 -60 -198 11 -135
13 -144 38 -166 25 -23 30 -23 132 -17 112 8 156 22 166 55 4 11 1 82 -5 158
-11 133 -12 138 -41 163 -16 14 -29 30 -29 35 0 6 26 15 58 22 31 7 86 25 120
42 35 16 77 30 94 30 34 0 107 -19 124 -32 7 -5 12 -46 12 -107 1 -56 8 -129
18 -167 9 -38 16 -86 15 -107 -2 -52 14 -99 44 -127 20 -19 32 -22 68 -18 40
5 50 1 88 -29 57 -45 156 -92 212 -99 141 -20 265 91 301 269 8 40 18 62 32
69 68 37 82 90 39 149 -13 19 -30 45 -36 59 -57 123 -75 155 -115 199 -58 65
-69 118 -33 157 38 41 73 54 146 54 49 0 85 7 128 25 72 30 68 29 55 6 -5 -11
-10 -30 -10 -43 0 -22 140 -244 164 -260 27 -19 70 -6 142 43 95 64 114 83
114 113 0 24 -120 216 -160 256 -24 24 -62 26 -94 5 -20 -14 -25 -14 -35 -1
-10 11 -9 21 3 45 38 73 8 122 -87 140 -56 10 -56 10 -134 0z"/>
</g>
</svg>
